<mxfile host="app.diagrams.net" modified="2022-10-13T07:47:20.848Z" agent="5.0 (Macintosh; Intel Mac OS X 10_15_7) AppleWebKit/537.36 (KHTML, like Gecko) Chrome/105.0.0.0 Safari/537.36" etag="R-2A0d5mr3I68HyyAGrm" version="20.4.0" type="github">
  <diagram id="3228e29e-7158-1315-38df-8450db1d8a1d" name="Page-1">
    <mxGraphModel dx="608" dy="110" grid="0" gridSize="10" guides="1" tooltips="1" connect="1" arrows="1" fold="1" page="1" pageScale="1" pageWidth="600" pageHeight="300" background="#EFF1F3" math="0" shadow="0">
      <root>
        <mxCell id="0" />
        <mxCell id="1" parent="0" />
        <mxCell id="Sud6pk3loR96N63fgRS5-1" value="" style="shape=image;verticalLabelPosition=bottom;verticalAlign=top;imageAspect=0;image=data:image/svg+xml,PHN2ZyB4bWxuczp4bGluaz0iaHR0cDovL3d3dy53My5vcmcvMTk5OS94bGluayIgeG1sbnM9Imh0dHA6Ly93d3cudzMub3JnLzIwMDAvc3ZnIiBoZWlnaHQ9IjIwMCIgd2lkdGg9IjIwMCIgdmVyc2lvbj0iMS4xIiB2aWV3Qm94PSIwIDAgMTAyNCAxMDI0IiBjbGFzcz0iaWNvbiI+PGRlZnM+PHN0eWxlIHR5cGU9InRleHQvY3NzIj5AZm9udC1mYWNlIHsgZm9udC1mYW1pbHk6IGZlZWRiYWNrLWljb25mb250OyBzcmM6IHVybCgiLy9hdC5hbGljZG4uY29tL3QvZm9udF8xMDMxMTU4X3U2OXc4eWh4ZHUud29mZjI/dD0xNjMwMDMzNzU5OTQ0IikgZm9ybWF0KCJ3b2ZmMiIpLCB1cmwoIi8vYXQuYWxpY2RuLmNvbS90L2ZvbnRfMTAzMTE1OF91Njl3OHloeGR1LndvZmY/dD0xNjMwMDMzNzU5OTQ0IikgZm9ybWF0KCJ3b2ZmIiksIHVybCgiLy9hdC5hbGljZG4uY29tL3QvZm9udF8xMDMxMTU4X3U2OXc4eWh4ZHUudHRmP3Q9MTYzMDAzMzc1OTk0NCIpIGZvcm1hdCgidHJ1ZXR5cGUiKTsgfSYjeGE7PC9zdHlsZT48L2RlZnM+PHBhdGggZmlsbD0iIzRBOTE5QiIgZD0iTTAgNzI4djEzNmMwIDM1LjMgMjguNyA2NCA2NCA2NGg4OTZjMzUuMyAwIDY0LTI4LjcgNjQtNjRWNzI4YzAtNC40LTMuNi04LTgtOEg4Yy00LjQgMC04IDMuNi04IDh6IG03NzQgOTZjMCA0LjQtMy42IDgtOCA4SDQyNGMtNC40IDAtOC0zLjYtOC04di00OGMwLTQuNCAzLjYtOCA4LThoMzQyYzQuNCAwIDggMy42IDggOHY0OHogbTEyMiAwYzAgNC40LTMuNiA4LTggOGgtNDhjLTQuNCAwLTgtMy42LTgtOHYtNDhjMC00LjQgMy42LTggOC04aDQ4YzQuNCAwIDggMy42IDggOHY0OHpNMCA1MzZ2MTQ0YzAgNC40IDMuNiA4IDggOGgxMDA4YzQuNCAwIDgtMy42IDgtOFY1MzZjMC00LjQtMy42LTgtOC04SDhjLTQuNCAwLTggMy42LTggOHogbTc3NCA5NmMwIDQuNC0zLjYgOC04IDhINDI0Yy00LjQgMC04LTMuNi04LTh2LTQ4YzAtNC40IDMuNi04IDgtOGgzNDJjNC40IDAgOCAzLjYgOCA4djQ4eiBtMTIyIDBjMCA0LjQtMy42IDgtOCA4aC00OGMtNC40IDAtOC0zLjYtOC04di00OGMwLTQuNCAzLjYtOCA4LThoNDhjNC40IDAgOCAzLjYgOCA4djQ4ek0wIDM0NHYxNDRjMCA0LjQgMy42IDggOCA4aDEwMDhjNC40IDAgOC0zLjYgOC04VjM0NGMwLTQuNC0zLjYtOC04LThIOGMtNC40IDAtOCAzLjYtOCA4eiBtNzc0IDk2YzAgNC40LTMuNiA4LTggOEg0MjRjLTQuNCAwLTgtMy42LTgtOHYtNDhjMC00LjQgMy42LTggOC04aDM0MmM0LjQgMCA4IDMuNiA4IDh2NDh6IG0xMjIgMGMwIDQuNC0zLjYgOC04IDhoLTQ4Yy00LjQgMC04LTMuNi04LTh2LTQ4YzAtNC40IDMuNi04IDgtOGg0OGM0LjQgMCA4IDMuNiA4IDh2NDh6TTk2MCA5Nkg2NGMtMzUuMyAwLTY0IDI4LjctNjQgNjR2MTM2YzAgNC40IDMuNiA4IDggOGgxMDA4YzQuNCAwIDgtMy42IDgtOFYxNjBjMC0zNS4zLTI4LjctNjQtNjQtNjR6TTc3NCAyNDhjMCA0LjQtMy42IDgtOCA4SDQyNGMtNC40IDAtOC0zLjYtOC04di00OGMwLTQuNCAzLjYtOCA4LThoMzQyYzQuNCAwIDggMy42IDggOHY0OHogbTEyMiAwYzAgNC40LTMuNiA4LTggOGgtNDhjLTQuNCAwLTgtMy42LTgtOHYtNDhjMC00LjQgMy42LTggOC04aDQ4YzQuNCAwIDggMy42IDggOHY0OHoiLz48L3N2Zz4=" parent="1" vertex="1">
          <mxGeometry x="228" y="736" width="137" height="137" as="geometry" />
        </mxCell>
        <mxCell id="Sud6pk3loR96N63fgRS5-2" value="&lt;font color=&quot;#4a919b&quot; style=&quot;font-size: 20px;&quot;&gt;Game Server&lt;/font&gt;" style="text;html=1;strokeColor=none;fillColor=none;align=center;verticalAlign=middle;whiteSpace=wrap;rounded=0;" parent="1" vertex="1">
          <mxGeometry x="226" y="863" width="141" height="30" as="geometry" />
        </mxCell>
        <mxCell id="Sud6pk3loR96N63fgRS5-13" style="edgeStyle=orthogonalEdgeStyle;orthogonalLoop=1;jettySize=auto;html=1;exitX=0.5;exitY=1;exitDx=0;exitDy=0;fontSize=20;fontColor=#4A919B;fillColor=#FDD276;endArrow=none;endFill=0;strokeWidth=3;dashed=1;rounded=1;strokeColor=#808080;" parent="1" source="Sud6pk3loR96N63fgRS5-3" target="Sud6pk3loR96N63fgRS5-1" edge="1">
          <mxGeometry relative="1" as="geometry" />
        </mxCell>
        <mxCell id="Sud6pk3loR96N63fgRS5-3" value="" style="shape=image;verticalLabelPosition=bottom;labelBackgroundColor=default;verticalAlign=top;aspect=fixed;imageAspect=0;image=data:image/svg+xml,PHN2ZyB4bWxuczp4bGluaz0iaHR0cDovL3d3dy53My5vcmcvMTk5OS94bGluayIgeG1sbnM9Imh0dHA6Ly93d3cudzMub3JnLzIwMDAvc3ZnIiBoZWlnaHQ9IjIwMCIgd2lkdGg9IjIwMCIgdmVyc2lvbj0iMS4xIiB2aWV3Qm94PSIwIDAgMTAyNCAxMDI0IiBjbGFzcz0iaWNvbiI+PHBhdGggZmlsbD0iIzRBOTE5QiIgZD0iTTgyMS42IDEwMjBIMjM0LjRjLTI4LjggMC01Mi44LTI0LTUyLjgtNTIuOFY1Ni44YzAtMjguOCAyNC01Mi44IDUyLjgtNTIuOGg1ODhjMjguOCAwIDUyLjggMjQgNTIuOCA1Mi44djkxMC40YzAgMjguOC0yNCA1Mi44LTUzLjYgNTIuOHpNMjM0LjQgMzZjLTExLjIgMC0yMC44IDkuNi0yMC44IDIwLjh2OTEwLjRjMCAxMS4yIDkuNiAyMC44IDIwLjggMjAuOGg1ODhjMTEuMiAwIDIwLjgtOS42IDIwLjgtMjAuOFY1Ni44YzAtMTEuMi05LjYtMjAuOC0yMC44LTIwLjhIMjM0LjR6Ii8+PHBhdGggZmlsbD0iIzRBOTE5QiIgZD0iTTY1OC40IDkwMy4yYy03NiAwLTEzOC40LTYxLjYtMTM4LjQtMTM4LjRzNjEuNi0xMzguNCAxMzguNC0xMzguNGM3NiAwIDEzOC40IDYxLjYgMTM4LjQgMTM4LjRzLTYyLjQgMTM4LjQtMTM4LjQgMTM4LjR6IG0wLTI2MGMtNjcuMiAwLTEyMi40IDU0LjQtMTIyLjQgMTIyLjQgMCA2Ny4yIDU0LjQgMTIyLjQgMTIyLjQgMTIyLjQgNjcuMiAwIDEyMi40LTU0LjQgMTIyLjQtMTIyLjQtMC44LTY4LTU1LjItMTIyLjQtMTIyLjQtMTIyLjR6TTc0OS42IDU0MS42SDMwNi40Yy0yNS42IDAtNDYuNC0yMC44LTQ2LjQtNDYuNFYxMzguNGMwLTI1LjYgMjAuOC00Ni40IDQ2LjQtNDYuNGg0NDIuNGMyNS42IDAgNDYuNCAyMC44IDQ2LjQgNDYuNHYzNTYuOGMwLjggMjUuNi0yMCA0Ni40LTQ1LjYgNDYuNHpNMzA2LjQgMTA4Yy0xNi44IDAtMzAuNCAxMy42LTMwLjQgMzAuNHYzNTYuOGMwIDE2LjggMTMuNiAzMC40IDMwLjQgMzAuNGg0NDIuNGMxNi44IDAgMzAuNC0xMy42IDMwLjQtMzAuNFYxMzguNGMwLTE2LjgtMTMuNi0zMC40LTMwLjQtMzAuNEgzMDYuNHpNNDEyIDc1NmMtMzAuNCAwLTU1LjItMjQuOC01NS4yLTU1LjIgMC0zMC40IDI0LjgtNTUuMiA1NS4yLTU1LjIgMzAuNCAwIDU1LjIgMjQuOCA1NS4yIDU1LjIgMCAzMC40LTI0LjggNTUuMi01NS4yIDU1LjJ6IG0wLTk0LjRjLTIxLjYgMC0zOS4yIDE3LjYtMzkuMiAzOS4yczE3LjYgMzkuMiAzOS4yIDM5LjIgMzkuMi0xNy42IDM5LjItMzkuMi0xNy42LTM5LjItMzkuMi0zOS4yek0zMTUuMiA4ODQuOGMtMzAuNCAwLTU1LjItMjQuOC01NS4yLTU1LjIgMC0zMC40IDI0LjgtNTUuMiA1NS4yLTU1LjIgMzAuNCAwIDU1LjIgMjQuOCA1NS4yIDU1LjIgMC44IDMwLjQtMjQuOCA1NS4yLTU1LjIgNTUuMnogbTAtOTUuMmMtMjEuNiAwLTM5LjIgMTcuNi0zOS4yIDM5LjJzMTcuNiAzOS4yIDM5LjIgMzkuMiAzOS4yLTE3LjYgMzkuMi0zOS4yYzAuOC0yMS42LTE3LjYtMzkuMi0zOS4yLTM5LjJ6Ii8+PHBhdGggZmlsbD0iIzRBOTE5QiIgZD0iTTczMS4yIDc3Mi44SDU4NC44Yy00LjggMC04LTMuMi04LThzMy4yLTggOC04aDE0NS42YzQuOCAwIDggMy4yIDggOCAwLjggNC44LTMuMiA4LTcuMiA4eiIvPjxwYXRoIGZpbGw9IiM0QTkxOUIiIGQ9Ik02NTguNCA4NDUuNmMtNC44IDAtOC00LTgtOGwwLjgtMTQ1LjZjMC00LjggMy4yLTggOC04czggNCA4IDhsLTAuOCAxNDUuNmMwIDQuOC00IDgtOCA4eiIvPjwvc3ZnPg==;" parent="1" vertex="1">
          <mxGeometry x="188" y="608" width="50" height="50" as="geometry" />
        </mxCell>
        <mxCell id="Sud6pk3loR96N63fgRS5-14" style="edgeStyle=orthogonalEdgeStyle;orthogonalLoop=1;jettySize=auto;html=1;exitX=0.5;exitY=1;exitDx=0;exitDy=0;fontSize=20;fontColor=#4A919B;fillColor=#FDD276;endArrow=none;endFill=0;strokeWidth=3;dashed=1;rounded=1;strokeColor=#808080;" parent="1" source="Sud6pk3loR96N63fgRS5-4" target="Sud6pk3loR96N63fgRS5-1" edge="1">
          <mxGeometry relative="1" as="geometry" />
        </mxCell>
        <mxCell id="Sud6pk3loR96N63fgRS5-4" value="" style="shape=image;verticalLabelPosition=bottom;labelBackgroundColor=default;verticalAlign=top;aspect=fixed;imageAspect=0;image=data:image/svg+xml,PHN2ZyB4bWxuczp4bGluaz0iaHR0cDovL3d3dy53My5vcmcvMTk5OS94bGluayIgeG1sbnM9Imh0dHA6Ly93d3cudzMub3JnLzIwMDAvc3ZnIiBoZWlnaHQ9IjIwMCIgd2lkdGg9IjIwMCIgdmVyc2lvbj0iMS4xIiB2aWV3Qm94PSIwIDAgMTAyNCAxMDI0IiBjbGFzcz0iaWNvbiI+PHBhdGggZmlsbD0iIzRBOTE5QiIgZD0iTTgyMS42IDEwMjBIMjM0LjRjLTI4LjggMC01Mi44LTI0LTUyLjgtNTIuOFY1Ni44YzAtMjguOCAyNC01Mi44IDUyLjgtNTIuOGg1ODhjMjguOCAwIDUyLjggMjQgNTIuOCA1Mi44djkxMC40YzAgMjguOC0yNCA1Mi44LTUzLjYgNTIuOHpNMjM0LjQgMzZjLTExLjIgMC0yMC44IDkuNi0yMC44IDIwLjh2OTEwLjRjMCAxMS4yIDkuNiAyMC44IDIwLjggMjAuOGg1ODhjMTEuMiAwIDIwLjgtOS42IDIwLjgtMjAuOFY1Ni44YzAtMTEuMi05LjYtMjAuOC0yMC44LTIwLjhIMjM0LjR6Ii8+PHBhdGggZmlsbD0iIzRBOTE5QiIgZD0iTTY1OC40IDkwMy4yYy03NiAwLTEzOC40LTYxLjYtMTM4LjQtMTM4LjRzNjEuNi0xMzguNCAxMzguNC0xMzguNGM3NiAwIDEzOC40IDYxLjYgMTM4LjQgMTM4LjRzLTYyLjQgMTM4LjQtMTM4LjQgMTM4LjR6IG0wLTI2MGMtNjcuMiAwLTEyMi40IDU0LjQtMTIyLjQgMTIyLjQgMCA2Ny4yIDU0LjQgMTIyLjQgMTIyLjQgMTIyLjQgNjcuMiAwIDEyMi40LTU0LjQgMTIyLjQtMTIyLjQtMC44LTY4LTU1LjItMTIyLjQtMTIyLjQtMTIyLjR6TTc0OS42IDU0MS42SDMwNi40Yy0yNS42IDAtNDYuNC0yMC44LTQ2LjQtNDYuNFYxMzguNGMwLTI1LjYgMjAuOC00Ni40IDQ2LjQtNDYuNGg0NDIuNGMyNS42IDAgNDYuNCAyMC44IDQ2LjQgNDYuNHYzNTYuOGMwLjggMjUuNi0yMCA0Ni40LTQ1LjYgNDYuNHpNMzA2LjQgMTA4Yy0xNi44IDAtMzAuNCAxMy42LTMwLjQgMzAuNHYzNTYuOGMwIDE2LjggMTMuNiAzMC40IDMwLjQgMzAuNGg0NDIuNGMxNi44IDAgMzAuNC0xMy42IDMwLjQtMzAuNFYxMzguNGMwLTE2LjgtMTMuNi0zMC40LTMwLjQtMzAuNEgzMDYuNHpNNDEyIDc1NmMtMzAuNCAwLTU1LjItMjQuOC01NS4yLTU1LjIgMC0zMC40IDI0LjgtNTUuMiA1NS4yLTU1LjIgMzAuNCAwIDU1LjIgMjQuOCA1NS4yIDU1LjIgMCAzMC40LTI0LjggNTUuMi01NS4yIDU1LjJ6IG0wLTk0LjRjLTIxLjYgMC0zOS4yIDE3LjYtMzkuMiAzOS4yczE3LjYgMzkuMiAzOS4yIDM5LjIgMzkuMi0xNy42IDM5LjItMzkuMi0xNy42LTM5LjItMzkuMi0zOS4yek0zMTUuMiA4ODQuOGMtMzAuNCAwLTU1LjItMjQuOC01NS4yLTU1LjIgMC0zMC40IDI0LjgtNTUuMiA1NS4yLTU1LjIgMzAuNCAwIDU1LjIgMjQuOCA1NS4yIDU1LjIgMC44IDMwLjQtMjQuOCA1NS4yLTU1LjIgNTUuMnogbTAtOTUuMmMtMjEuNiAwLTM5LjIgMTcuNi0zOS4yIDM5LjJzMTcuNiAzOS4yIDM5LjIgMzkuMiAzOS4yLTE3LjYgMzkuMi0zOS4yYzAuOC0yMS42LTE3LjYtMzkuMi0zOS4yLTM5LjJ6Ii8+PHBhdGggZmlsbD0iIzRBOTE5QiIgZD0iTTczMS4yIDc3Mi44SDU4NC44Yy00LjggMC04LTMuMi04LThzMy4yLTggOC04aDE0NS42YzQuOCAwIDggMy4yIDggOCAwLjggNC44LTMuMiA4LTcuMiA4eiIvPjxwYXRoIGZpbGw9IiM0QTkxOUIiIGQ9Ik02NTguNCA4NDUuNmMtNC44IDAtOC00LTgtOGwwLjgtMTQ1LjZjMC00LjggMy4yLTggOC04czggNCA4IDhsLTAuOCAxNDUuNmMwIDQuOC00IDgtOCA4eiIvPjwvc3ZnPg==;" parent="1" vertex="1">
          <mxGeometry x="246" y="608" width="50" height="50" as="geometry" />
        </mxCell>
        <mxCell id="Sud6pk3loR96N63fgRS5-15" style="edgeStyle=orthogonalEdgeStyle;orthogonalLoop=1;jettySize=auto;html=1;exitX=0.5;exitY=1;exitDx=0;exitDy=0;fontSize=20;fontColor=#4A919B;fillColor=#FDD276;endArrow=none;endFill=0;strokeWidth=3;dashed=1;rounded=1;strokeColor=#808080;" parent="1" source="Sud6pk3loR96N63fgRS5-5" target="Sud6pk3loR96N63fgRS5-1" edge="1">
          <mxGeometry relative="1" as="geometry" />
        </mxCell>
        <mxCell id="Sud6pk3loR96N63fgRS5-5" value="" style="shape=image;verticalLabelPosition=bottom;labelBackgroundColor=default;verticalAlign=top;aspect=fixed;imageAspect=0;image=data:image/svg+xml,PHN2ZyB4bWxuczp4bGluaz0iaHR0cDovL3d3dy53My5vcmcvMTk5OS94bGluayIgeG1sbnM9Imh0dHA6Ly93d3cudzMub3JnLzIwMDAvc3ZnIiBoZWlnaHQ9IjIwMCIgd2lkdGg9IjIwMCIgdmVyc2lvbj0iMS4xIiB2aWV3Qm94PSIwIDAgMTAyNCAxMDI0IiBjbGFzcz0iaWNvbiI+PHBhdGggZmlsbD0iIzRBOTE5QiIgZD0iTTgyMS42IDEwMjBIMjM0LjRjLTI4LjggMC01Mi44LTI0LTUyLjgtNTIuOFY1Ni44YzAtMjguOCAyNC01Mi44IDUyLjgtNTIuOGg1ODhjMjguOCAwIDUyLjggMjQgNTIuOCA1Mi44djkxMC40YzAgMjguOC0yNCA1Mi44LTUzLjYgNTIuOHpNMjM0LjQgMzZjLTExLjIgMC0yMC44IDkuNi0yMC44IDIwLjh2OTEwLjRjMCAxMS4yIDkuNiAyMC44IDIwLjggMjAuOGg1ODhjMTEuMiAwIDIwLjgtOS42IDIwLjgtMjAuOFY1Ni44YzAtMTEuMi05LjYtMjAuOC0yMC44LTIwLjhIMjM0LjR6Ii8+PHBhdGggZmlsbD0iIzRBOTE5QiIgZD0iTTY1OC40IDkwMy4yYy03NiAwLTEzOC40LTYxLjYtMTM4LjQtMTM4LjRzNjEuNi0xMzguNCAxMzguNC0xMzguNGM3NiAwIDEzOC40IDYxLjYgMTM4LjQgMTM4LjRzLTYyLjQgMTM4LjQtMTM4LjQgMTM4LjR6IG0wLTI2MGMtNjcuMiAwLTEyMi40IDU0LjQtMTIyLjQgMTIyLjQgMCA2Ny4yIDU0LjQgMTIyLjQgMTIyLjQgMTIyLjQgNjcuMiAwIDEyMi40LTU0LjQgMTIyLjQtMTIyLjQtMC44LTY4LTU1LjItMTIyLjQtMTIyLjQtMTIyLjR6TTc0OS42IDU0MS42SDMwNi40Yy0yNS42IDAtNDYuNC0yMC44LTQ2LjQtNDYuNFYxMzguNGMwLTI1LjYgMjAuOC00Ni40IDQ2LjQtNDYuNGg0NDIuNGMyNS42IDAgNDYuNCAyMC44IDQ2LjQgNDYuNHYzNTYuOGMwLjggMjUuNi0yMCA0Ni40LTQ1LjYgNDYuNHpNMzA2LjQgMTA4Yy0xNi44IDAtMzAuNCAxMy42LTMwLjQgMzAuNHYzNTYuOGMwIDE2LjggMTMuNiAzMC40IDMwLjQgMzAuNGg0NDIuNGMxNi44IDAgMzAuNC0xMy42IDMwLjQtMzAuNFYxMzguNGMwLTE2LjgtMTMuNi0zMC40LTMwLjQtMzAuNEgzMDYuNHpNNDEyIDc1NmMtMzAuNCAwLTU1LjItMjQuOC01NS4yLTU1LjIgMC0zMC40IDI0LjgtNTUuMiA1NS4yLTU1LjIgMzAuNCAwIDU1LjIgMjQuOCA1NS4yIDU1LjIgMCAzMC40LTI0LjggNTUuMi01NS4yIDU1LjJ6IG0wLTk0LjRjLTIxLjYgMC0zOS4yIDE3LjYtMzkuMiAzOS4yczE3LjYgMzkuMiAzOS4yIDM5LjIgMzkuMi0xNy42IDM5LjItMzkuMi0xNy42LTM5LjItMzkuMi0zOS4yek0zMTUuMiA4ODQuOGMtMzAuNCAwLTU1LjItMjQuOC01NS4yLTU1LjIgMC0zMC40IDI0LjgtNTUuMiA1NS4yLTU1LjIgMzAuNCAwIDU1LjIgMjQuOCA1NS4yIDU1LjIgMC44IDMwLjQtMjQuOCA1NS4yLTU1LjIgNTUuMnogbTAtOTUuMmMtMjEuNiAwLTM5LjIgMTcuNi0zOS4yIDM5LjJzMTcuNiAzOS4yIDM5LjIgMzkuMiAzOS4yLTE3LjYgMzkuMi0zOS4yYzAuOC0yMS42LTE3LjYtMzkuMi0zOS4yLTM5LjJ6Ii8+PHBhdGggZmlsbD0iIzRBOTE5QiIgZD0iTTczMS4yIDc3Mi44SDU4NC44Yy00LjggMC04LTMuMi04LThzMy4yLTggOC04aDE0NS42YzQuOCAwIDggMy4yIDggOCAwLjggNC44LTMuMiA4LTcuMiA4eiIvPjxwYXRoIGZpbGw9IiM0QTkxOUIiIGQ9Ik02NTguNCA4NDUuNmMtNC44IDAtOC00LTgtOGwwLjgtMTQ1LjZjMC00LjggMy4yLTggOC04czggNCA4IDhsLTAuOCAxNDUuNmMwIDQuOC00IDgtOCA4eiIvPjwvc3ZnPg==;" parent="1" vertex="1">
          <mxGeometry x="304" y="608" width="50" height="50" as="geometry" />
        </mxCell>
        <mxCell id="Sud6pk3loR96N63fgRS5-16" style="edgeStyle=orthogonalEdgeStyle;orthogonalLoop=1;jettySize=auto;html=1;exitX=0.5;exitY=1;exitDx=0;exitDy=0;entryX=0.5;entryY=0;entryDx=0;entryDy=0;fontSize=20;fontColor=#4A919B;fillColor=#FDD276;endArrow=none;endFill=0;strokeWidth=3;dashed=1;rounded=1;strokeColor=#808080;" parent="1" source="Sud6pk3loR96N63fgRS5-6" target="Sud6pk3loR96N63fgRS5-1" edge="1">
          <mxGeometry relative="1" as="geometry" />
        </mxCell>
        <mxCell id="Sud6pk3loR96N63fgRS5-6" value="" style="shape=image;verticalLabelPosition=bottom;labelBackgroundColor=default;verticalAlign=top;aspect=fixed;imageAspect=0;image=data:image/svg+xml,PHN2ZyB4bWxuczp4bGluaz0iaHR0cDovL3d3dy53My5vcmcvMTk5OS94bGluayIgeG1sbnM9Imh0dHA6Ly93d3cudzMub3JnLzIwMDAvc3ZnIiBoZWlnaHQ9IjIwMCIgd2lkdGg9IjIwMCIgdmVyc2lvbj0iMS4xIiB2aWV3Qm94PSIwIDAgMTAyNCAxMDI0IiBjbGFzcz0iaWNvbiI+PHBhdGggZmlsbD0iIzRBOTE5QiIgZD0iTTgyMS42IDEwMjBIMjM0LjRjLTI4LjggMC01Mi44LTI0LTUyLjgtNTIuOFY1Ni44YzAtMjguOCAyNC01Mi44IDUyLjgtNTIuOGg1ODhjMjguOCAwIDUyLjggMjQgNTIuOCA1Mi44djkxMC40YzAgMjguOC0yNCA1Mi44LTUzLjYgNTIuOHpNMjM0LjQgMzZjLTExLjIgMC0yMC44IDkuNi0yMC44IDIwLjh2OTEwLjRjMCAxMS4yIDkuNiAyMC44IDIwLjggMjAuOGg1ODhjMTEuMiAwIDIwLjgtOS42IDIwLjgtMjAuOFY1Ni44YzAtMTEuMi05LjYtMjAuOC0yMC44LTIwLjhIMjM0LjR6Ii8+PHBhdGggZmlsbD0iIzRBOTE5QiIgZD0iTTY1OC40IDkwMy4yYy03NiAwLTEzOC40LTYxLjYtMTM4LjQtMTM4LjRzNjEuNi0xMzguNCAxMzguNC0xMzguNGM3NiAwIDEzOC40IDYxLjYgMTM4LjQgMTM4LjRzLTYyLjQgMTM4LjQtMTM4LjQgMTM4LjR6IG0wLTI2MGMtNjcuMiAwLTEyMi40IDU0LjQtMTIyLjQgMTIyLjQgMCA2Ny4yIDU0LjQgMTIyLjQgMTIyLjQgMTIyLjQgNjcuMiAwIDEyMi40LTU0LjQgMTIyLjQtMTIyLjQtMC44LTY4LTU1LjItMTIyLjQtMTIyLjQtMTIyLjR6TTc0OS42IDU0MS42SDMwNi40Yy0yNS42IDAtNDYuNC0yMC44LTQ2LjQtNDYuNFYxMzguNGMwLTI1LjYgMjAuOC00Ni40IDQ2LjQtNDYuNGg0NDIuNGMyNS42IDAgNDYuNCAyMC44IDQ2LjQgNDYuNHYzNTYuOGMwLjggMjUuNi0yMCA0Ni40LTQ1LjYgNDYuNHpNMzA2LjQgMTA4Yy0xNi44IDAtMzAuNCAxMy42LTMwLjQgMzAuNHYzNTYuOGMwIDE2LjggMTMuNiAzMC40IDMwLjQgMzAuNGg0NDIuNGMxNi44IDAgMzAuNC0xMy42IDMwLjQtMzAuNFYxMzguNGMwLTE2LjgtMTMuNi0zMC40LTMwLjQtMzAuNEgzMDYuNHpNNDEyIDc1NmMtMzAuNCAwLTU1LjItMjQuOC01NS4yLTU1LjIgMC0zMC40IDI0LjgtNTUuMiA1NS4yLTU1LjIgMzAuNCAwIDU1LjIgMjQuOCA1NS4yIDU1LjIgMCAzMC40LTI0LjggNTUuMi01NS4yIDU1LjJ6IG0wLTk0LjRjLTIxLjYgMC0zOS4yIDE3LjYtMzkuMiAzOS4yczE3LjYgMzkuMiAzOS4yIDM5LjIgMzkuMi0xNy42IDM5LjItMzkuMi0xNy42LTM5LjItMzkuMi0zOS4yek0zMTUuMiA4ODQuOGMtMzAuNCAwLTU1LjItMjQuOC01NS4yLTU1LjIgMC0zMC40IDI0LjgtNTUuMiA1NS4yLTU1LjIgMzAuNCAwIDU1LjIgMjQuOCA1NS4yIDU1LjIgMC44IDMwLjQtMjQuOCA1NS4yLTU1LjIgNTUuMnogbTAtOTUuMmMtMjEuNiAwLTM5LjIgMTcuNi0zOS4yIDM5LjJzMTcuNiAzOS4yIDM5LjIgMzkuMiAzOS4yLTE3LjYgMzkuMi0zOS4yYzAuOC0yMS42LTE3LjYtMzkuMi0zOS4yLTM5LjJ6Ii8+PHBhdGggZmlsbD0iIzRBOTE5QiIgZD0iTTczMS4yIDc3Mi44SDU4NC44Yy00LjggMC04LTMuMi04LThzMy4yLTggOC04aDE0NS42YzQuOCAwIDggMy4yIDggOCAwLjggNC44LTMuMiA4LTcuMiA4eiIvPjxwYXRoIGZpbGw9IiM0QTkxOUIiIGQ9Ik02NTguNCA4NDUuNmMtNC44IDAtOC00LTgtOGwwLjgtMTQ1LjZjMC00LjggMy4yLTggOC04czggNCA4IDhsLTAuOCAxNDUuNmMwIDQuOC00IDgtOCA4eiIvPjwvc3ZnPg==;" parent="1" vertex="1">
          <mxGeometry x="362" y="608" width="50" height="50" as="geometry" />
        </mxCell>
      </root>
    </mxGraphModel>
  </diagram>
</mxfile>
